<?xml version="1.0" encoding="UTF-8" standalone="no"?>
<!-- Created with Inkscape (http://www.inkscape.org/) -->

<svg
   xmlns:dc="http://purl.org/dc/elements/1.1/"
   xmlns:cc="http://creativecommons.org/ns#"
   xmlns:rdf="http://www.w3.org/1999/02/22-rdf-syntax-ns#"
   xmlns:svg="http://www.w3.org/2000/svg"
   xmlns="http://www.w3.org/2000/svg"
   xmlns:sodipodi="http://sodipodi.sourceforge.net/DTD/sodipodi-0.dtd"
   xmlns:inkscape="http://www.inkscape.org/namespaces/inkscape"
   width="123.23345mm"
   height="176.709mm"
   viewBox="0 0 436.65396 626.13425"
   id="svg4172"
   version="1.1"
   inkscape:version="0.91 r13725"
   sodipodi:docname="paleta-colores.svg"
   inkscape:export-filename="/home/nsales/Proyectos/serenity/doc/memoria/cap5/img/paleta-colores.png"
   inkscape:export-xdpi="89.980698"
   inkscape:export-ydpi="89.980698">
  <defs
     id="defs4174" />
  <sodipodi:namedview
     id="base"
     pagecolor="#ffffff"
     bordercolor="#666666"
     borderopacity="1.0"
     inkscape:pageopacity="0.0"
     inkscape:pageshadow="2"
     inkscape:zoom="0.7"
     inkscape:cx="379.15296"
     inkscape:cy="326.02482"
     inkscape:document-units="px"
     inkscape:current-layer="text4746"
     showgrid="false"
     fit-margin-top="10"
     fit-margin-left="10"
     fit-margin-right="10"
     fit-margin-bottom="10"
     inkscape:window-width="1366"
     inkscape:window-height="704"
     inkscape:window-x="0"
     inkscape:window-y="27"
     inkscape:window-maximized="1" />
  <metadata
     id="metadata4177">
    <rdf:RDF>
      <cc:Work
         rdf:about="">
        <dc:format>image/svg+xml</dc:format>
        <dc:type
           rdf:resource="http://purl.org/dc/dcmitype/StillImage" />
        <dc:title></dc:title>
      </cc:Work>
    </rdf:RDF>
  </metadata>
  <g
     inkscape:label="Capa 1"
     inkscape:groupmode="layer"
     id="layer1"
     transform="translate(-20.196392,-60.824223)">
    <g
       id="g4759"
       transform="translate(-4.3705368,-14.38855)">
      <rect
         y="178.66823"
         x="60"
         height="90"
         width="90"
         id="rect4720"
         style="opacity:1;fill:#8bc34a;fill-opacity:1;fill-rule:nonzero;stroke:none;stroke-width:1;stroke-linecap:round;stroke-linejoin:round;stroke-miterlimit:4;stroke-dasharray:none;stroke-opacity:1" />
      <rect
         style="opacity:1;fill:#689f38;fill-opacity:1;fill-rule:nonzero;stroke:none;stroke-width:1;stroke-linecap:round;stroke-linejoin:round;stroke-miterlimit:4;stroke-dasharray:none;stroke-opacity:1"
         id="rect4724"
         width="90"
         height="90"
         x="177.11458"
         y="178.66823" />
      <rect
         style="opacity:1;fill:#dcedc8;fill-opacity:1;fill-rule:nonzero;stroke:none;stroke-width:1;stroke-linecap:round;stroke-linejoin:round;stroke-miterlimit:4;stroke-dasharray:none;stroke-opacity:1"
         id="rect4732"
         width="90"
         height="90"
         x="294.22916"
         y="178.66823" />
    </g>
    <g
       id="g4754"
       transform="translate(0,-5.765748)">
      <rect
         style="opacity:1;fill:#ff5722;fill-opacity:1;fill-rule:nonzero;stroke:none;stroke-width:1;stroke-linecap:round;stroke-linejoin:round;stroke-miterlimit:4;stroke-dasharray:none;stroke-opacity:1"
         id="rect4728"
         width="90"
         height="90"
         x="55.629463"
         y="368.66824" />
      <rect
         y="368.66824"
         x="289.85858"
         height="90"
         width="90"
         id="rect4730"
         style="opacity:1;fill:#ff8965;fill-opacity:1;fill-rule:nonzero;stroke:none;stroke-width:1;stroke-linecap:round;stroke-linejoin:round;stroke-miterlimit:4;stroke-dasharray:none;stroke-opacity:1" />
      <rect
         style="opacity:1;fill:#ce3100;fill-opacity:1;fill-rule:nonzero;stroke:none;stroke-width:1;stroke-linecap:round;stroke-linejoin:round;stroke-miterlimit:4;stroke-dasharray:none;stroke-opacity:1"
         id="rect4734"
         width="90"
         height="90"
         x="172.74403"
         y="368.66824" />
    </g>
    <g
       id="g4750"
       transform="translate(-4.2008934,20)">
      <rect
         y="541.52539"
         x="59.830357"
         height="90"
         width="90"
         id="rect4726"
         style="opacity:1;fill:#212121;fill-opacity:1;fill-rule:nonzero;stroke:none;stroke-width:1;stroke-linecap:round;stroke-linejoin:round;stroke-miterlimit:4;stroke-dasharray:none;stroke-opacity:1" />
      <rect
         style="opacity:1;fill:#727272;fill-opacity:1;fill-rule:nonzero;stroke:none;stroke-width:1;stroke-linecap:round;stroke-linejoin:round;stroke-miterlimit:4;stroke-dasharray:none;stroke-opacity:1"
         id="rect4736"
         width="90"
         height="90"
         x="176.94492"
         y="541.52539" />
    </g>
    <g
       style="font-style:normal;font-weight:normal;font-size:40px;line-height:1000%;font-family:sans-serif;letter-spacing:0px;word-spacing:32.77999878px;fill:#000000;fill-opacity:1;stroke:none;stroke-width:1px;stroke-linecap:butt;stroke-linejoin:miter;stroke-opacity:1"
       id="text4738">
      <path
         d="m 79.145088,99.733856 0,4.160154 q -1.992187,-1.85547 -4.257812,-2.77344 -2.246094,-0.91796 -4.785157,-0.91796 -5,0 -7.65625,3.0664 -2.65625,3.04688 -2.65625,8.82813 0,5.76172 2.65625,8.82812 2.65625,3.04688 7.65625,3.04688 2.539063,0 4.785157,-0.91797 2.265625,-0.91797 4.257812,-2.77344 l 0,4.12109 q -2.070312,1.40625 -4.394531,2.10938 -2.304688,0.70312 -4.882813,0.70312 -6.621093,0 -10.429687,-4.04296 -3.808594,-4.0625 -3.808594,-11.07422 0,-7.03125 3.808594,-11.07422 3.808594,-4.062501 10.429687,-4.062501 2.617188,0 4.921875,0.703125 2.324219,0.683593 4.355469,2.070312 z"
         style=""
         id="path4765" />
      <path
         d="m 93.598213,107.29245 q -2.890625,0 -4.570312,2.26562 -1.679688,2.2461 -1.679688,6.17188 0,3.92578 1.660156,6.19141 1.679688,2.24609 4.589844,2.24609 2.871094,0 4.550781,-2.26563 1.679688,-2.26562 1.679688,-6.17187 0,-3.88672 -1.679688,-6.15234 -1.679687,-2.28516 -4.550781,-2.28516 z m 0,-3.04688 q 4.6875,0 7.363277,3.04688 2.67579,3.04687 2.67579,8.4375 0,5.37109 -2.67579,8.4375 -2.675777,3.04687 -7.363277,3.04687 -4.707031,0 -7.382812,-3.04687 -2.65625,-3.06641 -2.65625,-8.4375 0,-5.39063 2.65625,-8.4375 2.675781,-3.04688 7.382812,-3.04688 z"
         style=""
         id="path4767" />
      <path
         d="m 109.57478,96.257294 3.59375,0 0,30.390626 -3.59375,0 0,-30.390626 z"
         style=""
         id="path4769" />
      <path
         d="m 129.14509,107.29245 q -2.89063,0 -4.57031,2.26562 -1.67969,2.2461 -1.67969,6.17188 0,3.92578 1.66015,6.19141 1.67969,2.24609 4.58985,2.24609 2.87109,0 4.55078,-2.26563 1.67969,-2.26562 1.67969,-6.17187 0,-3.88672 -1.67969,-6.15234 -1.67969,-2.28516 -4.55078,-2.28516 z m 0,-3.04688 q 4.6875,0 7.36328,3.04688 2.67578,3.04687 2.67578,8.4375 0,5.37109 -2.67578,8.4375 -2.67578,3.04687 -7.36328,3.04687 -4.70703,0 -7.38281,-3.04687 -2.65625,-3.06641 -2.65625,-8.4375 0,-5.39063 2.65625,-8.4375 2.67578,-3.04688 7.38281,-3.04688 z"
         style=""
         id="path4771" />
      <path
         d="m 157.79743,108.13229 q -0.60547,-0.35156 -1.32812,-0.50781 -0.70313,-0.17578 -1.5625,-0.17578 -3.04688,0 -4.6875,1.99219 -1.6211,1.97265 -1.6211,5.68359 l 0,11.52344 -3.61328,0 0,-21.875 3.61328,0 0,3.39844 q 1.13282,-1.99219 2.94922,-2.94922 1.81641,-0.97657 4.41406,-0.97657 0.3711,0 0.82032,0.0586 0.44922,0.0391 0.99609,0.13672 l 0.0195,3.6914 z"
         style=""
         id="path4773" />
      <path
         d="m 190.59696,123.36667 0,11.60156 -3.61328,0 0,-30.19531 3.61328,0 0,3.32031 q 1.13281,-1.95312 2.85156,-2.89062 1.73829,-0.95704 4.14063,-0.95704 3.98437,0 6.46484,3.16407 2.5,3.16406 2.5,8.32031 0,5.15625 -2.5,8.32031 -2.48047,3.16406 -6.46484,3.16406 -2.40234,0 -4.14063,-0.9375 -1.71875,-0.95703 -2.85156,-2.91015 z m 12.22656,-7.63672 q 0,-3.96484 -1.64062,-6.21094 -1.62109,-2.26562 -4.47266,-2.26562 -2.85156,0 -4.49218,2.26562 -1.6211,2.2461 -1.6211,6.21094 0,3.96484 1.6211,6.23047 1.64062,2.24609 4.49218,2.24609 2.85157,0 4.47266,-2.24609 1.64062,-2.26563 1.64062,-6.23047 z"
         id="path4775"
         inkscape:connector-curvature="0" />
      <path
         d="m 225.18681,108.13229 q -0.60547,-0.35156 -1.32813,-0.50781 -0.70312,-0.17578 -1.5625,-0.17578 -3.04687,0 -4.6875,1.99219 -1.62109,1.97265 -1.62109,5.68359 l 0,11.52344 -3.61328,0 0,-21.875 3.61328,0 0,3.39844 q 1.13281,-1.99219 2.94922,-2.94922 1.8164,-0.97657 4.41406,-0.97657 0.37109,0 0.82031,0.0586 0.44922,0.0391 0.99609,0.13672 l 0.0195,3.6914 z"
         id="path4777"
         inkscape:connector-curvature="0" />
      <path
         d="m 228.9954,104.77292 3.59375,0 0,21.875 -3.59375,0 0,-21.875 z m 0,-8.515626 3.59375,0 0,4.550776 -3.59375,0 0,-4.550776 z"
         id="path4779"
         inkscape:connector-curvature="0" />
      <path
         d="m 257.1204,108.97214 q 1.34766,-2.42188 3.22266,-3.57422 1.875,-1.15235 4.41406,-1.15235 3.41797,0 5.27344,2.40235 1.85546,2.38281 1.85546,6.79687 l 0,13.20313 -3.61328,0 0,-13.08594 q 0,-3.14453 -1.11328,-4.66797 -1.11328,-1.52344 -3.39844,-1.52344 -2.79296,0 -4.41406,1.85547 -1.62109,1.85547 -1.62109,5.0586 l 0,12.36328 -3.61328,0 0,-13.08594 q 0,-3.16406 -1.11328,-4.66797 -1.11329,-1.52344 -3.4375,-1.52344 -2.75391,0 -4.375,1.875 -1.6211,1.85547 -1.6211,5.03907 l 0,12.36328 -3.61328,0 0,-21.875 3.61328,0 0,3.39844 q 1.23047,-2.01172 2.94922,-2.96875 1.71875,-0.95704 4.08203,-0.95704 2.38281,0 4.04297,1.21094 1.67969,1.21094 2.48047,3.51563 z"
         id="path4781"
         inkscape:connector-curvature="0" />
      <path
         d="m 289.01493,115.65182 q -4.35547,0 -6.03516,0.9961 -1.67968,0.99609 -1.67968,3.39844 0,1.91406 1.25,3.04687 1.26953,1.11328 3.4375,1.11328 2.98828,0 4.78515,-2.10937 1.81641,-2.12891 1.81641,-5.64453 l 0,-0.80079 -3.57422,0 z m 7.16797,-1.48437 0,12.48047 -3.59375,0 0,-3.32031 q -1.23047,1.99218 -3.06641,2.94921 -1.83593,0.9375 -4.49218,0.9375 -3.35938,0 -5.35157,-1.875 -1.97265,-1.89453 -1.97265,-5.05859 0,-3.69141 2.46093,-5.56641 2.48047,-1.875 7.38282,-1.875 l 5.03906,0 0,-0.35156 q 0,-2.48047 -1.64063,-3.82812 -1.62109,-1.36719 -4.57031,-1.36719 -1.875,0 -3.65234,0.44922 -1.77735,0.44922 -3.41797,1.34765 l 0,-3.32031 q 1.97266,-0.76172 3.82812,-1.13281 1.85547,-0.39063 3.61329,-0.39063 4.74609,0 7.08984,2.46094 2.34375,2.46094 2.34375,7.46094 z"
         id="path4783"
         inkscape:connector-curvature="0" />
      <path
         d="m 316.28056,108.13229 q -0.60547,-0.35156 -1.32813,-0.50781 -0.70312,-0.17578 -1.5625,-0.17578 -3.04687,0 -4.6875,1.99219 -1.62109,1.97265 -1.62109,5.68359 l 0,11.52344 -3.61328,0 0,-21.875 3.61328,0 0,3.39844 q 1.13281,-1.99219 2.94922,-2.94922 1.8164,-0.97657 4.41406,-0.97657 0.37109,0 0.82031,0.0586 0.44922,0.0391 0.99609,0.13672 l 0.0195,3.6914 z"
         id="path4785"
         inkscape:connector-curvature="0" />
      <path
         d="m 320.08915,104.77292 3.59375,0 0,21.875 -3.59375,0 0,-21.875 z m 0,-8.515626 3.59375,0 0,4.550776 -3.59375,0 0,-4.550776 z"
         id="path4787"
         inkscape:connector-curvature="0" />
      <path
         d="m 339.65946,107.29245 q -2.89062,0 -4.57031,2.26562 -1.67969,2.2461 -1.67969,6.17188 0,3.92578 1.66016,6.19141 1.67969,2.24609 4.58984,2.24609 2.8711,0 4.55078,-2.26563 1.67969,-2.26562 1.67969,-6.17187 0,-3.88672 -1.67969,-6.15234 -1.67968,-2.28516 -4.55078,-2.28516 z m 0,-3.04688 q 4.6875,0 7.36328,3.04688 2.67578,3.04687 2.67578,8.4375 0,5.37109 -2.67578,8.4375 -2.67578,3.04687 -7.36328,3.04687 -4.70703,0 -7.38281,-3.04687 -2.65625,-3.06641 -2.65625,-8.4375 0,-5.39063 2.65625,-8.4375 2.67578,-3.04688 7.38281,-3.04688 z"
         id="path4789"
         inkscape:connector-curvature="0" />
    </g>
    <g
       style="font-style:normal;font-weight:normal;font-size:40px;line-height:1000%;font-family:sans-serif;letter-spacing:0px;word-spacing:32.77999878px;fill:#000000;fill-opacity:1;stroke:none;stroke-width:1px;stroke-linecap:butt;stroke-linejoin:miter;stroke-opacity:1"
       id="text4742">
      <path
         d="m 79.145088,306.1106 0,4.16015 q -1.992187,-1.85547 -4.257812,-2.77344 -2.246094,-0.91796 -4.785157,-0.91796 -5,0 -7.65625,3.0664 -2.65625,3.04688 -2.65625,8.82813 0,5.76172 2.65625,8.82812 2.65625,3.04688 7.65625,3.04688 2.539063,0 4.785157,-0.91797 2.265625,-0.91797 4.257812,-2.77344 l 0,4.12109 q -2.070312,1.40625 -4.394531,2.10938 -2.304688,0.70312 -4.882813,0.70312 -6.621093,0 -10.429687,-4.04296 -3.808594,-4.0625 -3.808594,-11.07422 0,-7.03125 3.808594,-11.07422 3.808594,-4.0625 10.429687,-4.0625 2.617188,0 4.921875,0.70312 2.324219,0.6836 4.355469,2.07032 z"
         style=""
         id="path4792" />
      <path
         d="m 93.598213,313.66919 q -2.890625,0 -4.570312,2.26562 -1.679688,2.2461 -1.679688,6.17188 0,3.92578 1.660156,6.19141 1.679688,2.24609 4.589844,2.24609 2.871094,0 4.550781,-2.26563 1.679688,-2.26562 1.679688,-6.17187 0,-3.88672 -1.679688,-6.15234 -1.679687,-2.28516 -4.550781,-2.28516 z m 0,-3.04688 q 4.6875,0 7.363277,3.04688 2.67579,3.04687 2.67579,8.4375 0,5.37109 -2.67579,8.4375 -2.675777,3.04687 -7.363277,3.04687 -4.707031,0 -7.382812,-3.04687 -2.65625,-3.06641 -2.65625,-8.4375 0,-5.39063 2.65625,-8.4375 2.675781,-3.04688 7.382812,-3.04688 z"
         style=""
         id="path4794" />
      <path
         d="m 109.57478,302.63403 3.59375,0 0,30.39063 -3.59375,0 0,-30.39063 z"
         style=""
         id="path4796" />
      <path
         d="m 129.14509,313.66919 q -2.89063,0 -4.57031,2.26562 -1.67969,2.2461 -1.67969,6.17188 0,3.92578 1.66015,6.19141 1.67969,2.24609 4.58985,2.24609 2.87109,0 4.55078,-2.26563 1.67969,-2.26562 1.67969,-6.17187 0,-3.88672 -1.67969,-6.15234 -1.67969,-2.28516 -4.55078,-2.28516 z m 0,-3.04688 q 4.6875,0 7.36328,3.04688 2.67578,3.04687 2.67578,8.4375 0,5.37109 -2.67578,8.4375 -2.67578,3.04687 -7.36328,3.04687 -4.70703,0 -7.38281,-3.04687 -2.65625,-3.06641 -2.65625,-8.4375 0,-5.39063 2.65625,-8.4375 2.67578,-3.04688 7.38281,-3.04688 z"
         style=""
         id="path4798" />
      <path
         d="m 157.79743,314.50903 q -0.60547,-0.35156 -1.32812,-0.50781 -0.70313,-0.17578 -1.5625,-0.17578 -3.04688,0 -4.6875,1.99219 -1.6211,1.97265 -1.6211,5.68359 l 0,11.52344 -3.61328,0 0,-21.875 3.61328,0 0,3.39844 q 1.13282,-1.99219 2.94922,-2.94922 1.81641,-0.97657 4.41406,-0.97657 0.3711,0 0.82032,0.0586 0.44922,0.0391 0.99609,0.13672 l 0.0195,3.6914 z"
         style=""
         id="path4800" />
      <path
         d="m 201.06571,311.79419 0,3.39844 q -1.52344,-0.78125 -3.16406,-1.17188 -1.64063,-0.39062 -3.39844,-0.39062 -2.67578,0 -4.02344,0.82031 -1.32812,0.82031 -1.32812,2.46094 0,1.25 0.95703,1.97265 0.95703,0.70313 3.84766,1.34766 l 1.23047,0.27344 q 3.82812,0.82031 5.42968,2.32422 1.6211,1.48437 1.6211,4.16015 0,3.04688 -2.42188,4.82422 -2.40234,1.77734 -6.62109,1.77734 -1.75781,0 -3.67188,-0.35156 -1.89453,-0.33203 -4.0039,-1.01562 l 0,-3.71094 q 1.99218,1.03516 3.92578,1.5625 1.93359,0.50781 3.82812,0.50781 2.53907,0 3.90625,-0.85937 1.36719,-0.87891 1.36719,-2.46094 0,-1.46484 -0.99609,-2.24609 -0.97657,-0.78125 -4.31641,-1.50391 l -1.25,-0.29297 q -3.33984,-0.70312 -4.82422,-2.14844 -1.48437,-1.46484 -1.48437,-4.0039 0,-3.08594 2.1875,-4.76563 2.1875,-1.67969 6.21093,-1.67969 1.99219,0 3.75,0.29297 1.75782,0.29297 3.24219,0.87891 z"
         id="path4802"
         inkscape:connector-curvature="0" />
      <path
         d="m 226.69071,321.18872 0,1.75781 -16.52344,0 q 0.23438,3.71094 2.22657,5.66407 2.01172,1.93359 5.58593,1.93359 2.07032,0 4.00391,-0.50781 1.95313,-0.50782 3.86719,-1.52344 l 0,3.39844 q -1.9336,0.82031 -3.96485,1.25 -2.03125,0.42968 -4.12109,0.42968 -5.23437,0 -8.30078,-3.04687 -3.04688,-3.04688 -3.04688,-8.24219 0,-5.37109 2.89063,-8.51562 2.91016,-3.16407 7.83203,-3.16407 4.41406,0 6.97266,2.85157 2.57812,2.83203 2.57812,7.71484 z m -3.59375,-1.05469 q -0.0391,-2.94922 -1.66015,-4.70703 -1.60157,-1.75781 -4.25782,-1.75781 -3.00781,0 -4.82422,1.69922 -1.79687,1.69922 -2.07031,4.78515 l 12.8125,-0.0195 z"
         id="path4804"
         inkscape:connector-curvature="0" />
      <path
         d="m 248.33134,311.9895 0,3.35938 q -1.52344,-0.83985 -3.06641,-1.25 -1.52344,-0.42969 -3.08594,-0.42969 -3.49609,0 -5.42968,2.22656 -1.9336,2.20703 -1.9336,6.21094 0,4.00391 1.9336,6.23047 1.93359,2.20703 5.42968,2.20703 1.5625,0 3.08594,-0.41016 1.54297,-0.42968 3.06641,-1.26953 l 0,3.32031 q -1.50391,0.70313 -3.125,1.05469 -1.60157,0.35156 -3.41797,0.35156 -4.94141,0 -7.85156,-3.10546 -2.91016,-3.10547 -2.91016,-8.37891 0,-5.35156 2.92969,-8.41797 2.94922,-3.06641 8.0664,-3.06641 1.66016,0 3.24219,0.35157 1.58203,0.33203 3.06641,1.01562 z"
         id="path4806"
         inkscape:connector-curvature="0" />
      <path
         d="m 254.24931,324.39185 0,-13.24219 3.59375,0 0,13.10547 q 0,3.10547 1.21093,4.66797 1.21094,1.54296 3.63282,1.54296 2.91015,0 4.58984,-1.85546 1.69922,-1.85547 1.69922,-5.0586 l 0,-12.40234 3.59375,0 0,21.875 -3.59375,0 0,-3.35938 q -1.3086,1.99219 -3.04688,2.96875 -1.71875,0.95703 -4.0039,0.95703 -3.76953,0 -5.72266,-2.34375 -1.95312,-2.34375 -1.95312,-6.85546 z m 9.04296,-13.76954 0,0 z"
         id="path4808"
         inkscape:connector-curvature="0" />
      <path
         d="m 298.19462,319.82153 0,13.20313 -3.59375,0 0,-13.08594 q 0,-3.10547 -1.21094,-4.64844 -1.21094,-1.54297 -3.63281,-1.54297 -2.91016,0 -4.58985,1.85547 -1.67968,1.85547 -1.67968,5.0586 l 0,12.36328 -3.61328,0 0,-21.875 3.61328,0 0,3.39844 q 1.28906,-1.97266 3.02734,-2.94922 1.75781,-0.97657 4.04297,-0.97657 3.76953,0 5.70312,2.34375 1.9336,2.32422 1.9336,6.85547 z"
         id="path4810"
         inkscape:connector-curvature="0" />
      <path
         d="m 319.79618,314.46997 0,-11.83594 3.59375,0 0,30.39063 -3.59375,0 0,-3.28125 q -1.13281,1.95312 -2.87109,2.91015 -1.71875,0.9375 -4.14063,0.9375 -3.96484,0 -6.46484,-3.16406 -2.48047,-3.16406 -2.48047,-8.32031 0,-5.15625 2.48047,-8.32031 2.5,-3.16407 6.46484,-3.16407 2.42188,0 4.14063,0.95704 1.73828,0.9375 2.87109,2.89062 z m -12.24609,7.63672 q 0,3.96484 1.62109,6.23047 1.64063,2.24609 4.49219,2.24609 2.85156,0 4.49219,-2.24609 1.64062,-2.26563 1.64062,-6.23047 0,-3.96484 -1.64062,-6.21094 -1.64063,-2.26562 -4.49219,-2.26562 -2.85156,0 -4.49219,2.26562 -1.62109,2.2461 -1.62109,6.21094 z"
         id="path4812"
         inkscape:connector-curvature="0" />
      <path
         d="m 340.73368,322.02856 q -4.35547,0 -6.03516,0.9961 -1.67968,0.99609 -1.67968,3.39844 0,1.91406 1.25,3.04687 1.26953,1.11328 3.4375,1.11328 2.98828,0 4.78515,-2.10937 1.81641,-2.12891 1.81641,-5.64453 l 0,-0.80079 -3.57422,0 z m 7.16797,-1.48437 0,12.48047 -3.59375,0 0,-3.32031 q -1.23047,1.99218 -3.06641,2.94921 -1.83593,0.9375 -4.49218,0.9375 -3.35938,0 -5.35157,-1.875 -1.97265,-1.89453 -1.97265,-5.05859 0,-3.69141 2.46093,-5.56641 2.48047,-1.875 7.38282,-1.875 l 5.03906,0 0,-0.35156 q 0,-2.48047 -1.64063,-3.82812 -1.62109,-1.36719 -4.57031,-1.36719 -1.875,0 -3.65234,0.44922 -1.77735,0.44922 -3.41797,1.34765 l 0,-3.32031 q 1.97266,-0.76172 3.82812,-1.13281 1.85547,-0.39063 3.61329,-0.39063 4.74609,0 7.08984,2.46094 2.34375,2.46094 2.34375,7.46094 z"
         id="path4814"
         inkscape:connector-curvature="0" />
      <path
         d="m 367.99931,314.50903 q -0.60547,-0.35156 -1.32813,-0.50781 -0.70312,-0.17578 -1.5625,-0.17578 -3.04687,0 -4.6875,1.99219 -1.62109,1.97265 -1.62109,5.68359 l 0,11.52344 -3.61328,0 0,-21.875 3.61328,0 0,3.39844 q 1.13281,-1.99219 2.94922,-2.94922 1.8164,-0.97657 4.41406,-0.97657 0.37109,0 0.82031,0.0586 0.44922,0.0391 0.99609,0.13672 l 0.0195,3.6914 z"
         id="path4816"
         inkscape:connector-curvature="0" />
      <path
         d="m 371.8079,311.14966 3.59375,0 0,21.875 -3.59375,0 0,-21.875 z m 0,-8.51563 3.59375,0 0,4.55078 -3.59375,0 0,-4.55078 z"
         id="path4818"
         inkscape:connector-curvature="0" />
      <path
         d="m 391.37821,313.66919 q -2.89062,0 -4.57031,2.26562 -1.67969,2.2461 -1.67969,6.17188 0,3.92578 1.66016,6.19141 1.67969,2.24609 4.58984,2.24609 2.8711,0 4.55078,-2.26563 1.67969,-2.26562 1.67969,-6.17187 0,-3.88672 -1.67969,-6.15234 -1.67968,-2.28516 -4.55078,-2.28516 z m 0,-3.04688 q 4.6875,0 7.36328,3.04688 2.67578,3.04687 2.67578,8.4375 0,5.37109 -2.67578,8.4375 -2.67578,3.04687 -7.36328,3.04687 -4.70703,0 -7.38281,-3.04687 -2.65625,-3.06641 -2.65625,-8.4375 0,-5.39063 2.65625,-8.4375 2.67578,-3.04688 7.38281,-3.04688 z"
         id="path4820"
         inkscape:connector-curvature="0" />
    </g>
    <g
       style="font-style:normal;font-weight:normal;font-size:40px;line-height:1000%;font-family:sans-serif;letter-spacing:0px;word-spacing:32.77999878px;fill:#000000;fill-opacity:1;stroke:none;stroke-width:1px;stroke-linecap:butt;stroke-linejoin:miter;stroke-opacity:1"
       id="text4746">
      <path
         d="m 79.145088,504.73346 0,4.16016 q -1.992187,-1.85547 -4.257812,-2.77344 -2.246094,-0.91797 -4.785157,-0.91797 -5,0 -7.65625,3.06641 -2.65625,3.04687 -2.65625,8.82812 0,5.76172 2.65625,8.82813 2.65625,3.04687 7.65625,3.04687 2.539063,0 4.785157,-0.91797 2.265625,-0.91797 4.257812,-2.77344 l 0,4.1211 q -2.070312,1.40625 -4.394531,2.10937 -2.304688,0.70313 -4.882813,0.70313 -6.621093,0 -10.429687,-4.04297 -3.808594,-4.0625 -3.808594,-11.07422 0,-7.03125 3.808594,-11.07422 3.808594,-4.0625 10.429687,-4.0625 2.617188,0 4.921875,0.70313 2.324219,0.68359 4.355469,2.07031 z"
         style=""
         id="path4823" />
      <path
         d="m 93.598213,512.29205 q -2.890625,0 -4.570312,2.26563 -1.679688,2.24609 -1.679688,6.17187 0,3.92578 1.660156,6.19141 1.679688,2.24609 4.589844,2.24609 2.871094,0 4.550781,-2.26562 1.679688,-2.26563 1.679688,-6.17188 0,-3.88672 -1.679688,-6.15234 -1.679687,-2.28516 -4.550781,-2.28516 z m 0,-3.04687 q 4.6875,0 7.363277,3.04687 2.67579,3.04688 2.67579,8.4375 0,5.3711 -2.67579,8.4375 -2.675777,3.04688 -7.363277,3.04688 -4.707031,0 -7.382812,-3.04688 -2.65625,-3.0664 -2.65625,-8.4375 0,-5.39062 2.65625,-8.4375 2.675781,-3.04687 7.382812,-3.04687 z"
         style=""
         id="path4825" />
      <path
         d="m 109.57478,501.2569 3.59375,0 0,30.39062 -3.59375,0 0,-30.39062 z"
         style=""
         id="path4827" />
      <path
         d="m 129.14509,512.29205 q -2.89063,0 -4.57031,2.26563 -1.67969,2.24609 -1.67969,6.17187 0,3.92578 1.66015,6.19141 1.67969,2.24609 4.58985,2.24609 2.87109,0 4.55078,-2.26562 1.67969,-2.26563 1.67969,-6.17188 0,-3.88672 -1.67969,-6.15234 -1.67969,-2.28516 -4.55078,-2.28516 z m 0,-3.04687 q 4.6875,0 7.36328,3.04687 2.67578,3.04688 2.67578,8.4375 0,5.3711 -2.67578,8.4375 -2.67578,3.04688 -7.36328,3.04688 -4.70703,0 -7.38281,-3.04688 -2.65625,-3.0664 -2.65625,-8.4375 0,-5.39062 2.65625,-8.4375 2.67578,-3.04687 7.38281,-3.04687 z"
         style=""
         id="path4829" />
      <path
         d="m 157.79743,513.1319 q -0.60547,-0.35157 -1.32812,-0.50782 -0.70313,-0.17578 -1.5625,-0.17578 -3.04688,0 -4.6875,1.99219 -1.6211,1.97266 -1.6211,5.68359 l 0,11.52344 -3.61328,0 0,-21.875 3.61328,0 0,3.39844 q 1.13282,-1.99219 2.94922,-2.94922 1.81641,-0.97656 4.41406,-0.97656 0.3711,0 0.82032,0.0586 0.44922,0.0391 0.99609,0.13672 l 0.0195,3.69141 z"
         style=""
         id="path4831" />
      <path
         d="m 202.82352,520.72955 q 0,-3.96484 -1.64062,-6.21093 -1.62109,-2.26563 -4.47266,-2.26563 -2.85156,0 -4.49218,2.26563 -1.6211,2.24609 -1.6211,6.21093 0,3.96485 1.6211,6.23047 1.64062,2.2461 4.49218,2.2461 2.85157,0 4.47266,-2.2461 1.64062,-2.26562 1.64062,-6.23047 z m -12.22656,-7.63672 q 1.13281,-1.95312 2.85156,-2.89062 1.73829,-0.95703 4.14063,-0.95703 3.98437,0 6.46484,3.16406 2.5,3.16406 2.5,8.32031 0,5.15625 -2.5,8.32032 -2.48047,3.16406 -6.46484,3.16406 -2.40234,0 -4.14063,-0.9375 -1.71875,-0.95703 -2.85156,-2.91016 l 0,3.28125 -3.61328,0 0,-30.39062 3.61328,0 0,11.83593 z"
         id="path4833"
         inkscape:connector-curvature="0" />
      <path
         d="m 222.45243,520.65143 q -4.35547,0 -6.03516,0.99609 -1.67968,0.9961 -1.67968,3.39844 0,1.91406 1.25,3.04687 1.26953,1.11329 3.4375,1.11329 2.98828,0 4.78515,-2.10938 1.81641,-2.12891 1.81641,-5.64453 l 0,-0.80078 -3.57422,0 z m 7.16797,-1.48438 0,12.48047 -3.59375,0 0,-3.32031 q -1.23047,1.99219 -3.06641,2.94922 -1.83593,0.9375 -4.49218,0.9375 -3.35938,0 -5.35157,-1.875 -1.97265,-1.89453 -1.97265,-5.0586 0,-3.6914 2.46093,-5.5664 2.48047,-1.875 7.38282,-1.875 l 5.03906,0 0,-0.35156 q 0,-2.48047 -1.64063,-3.82813 -1.62109,-1.36719 -4.57031,-1.36719 -1.875,0 -3.65234,0.44922 -1.77735,0.44922 -3.41797,1.34766 l 0,-3.32031 q 1.97266,-0.76172 3.82812,-1.13282 1.85547,-0.39062 3.61329,-0.39062 4.74609,0 7.08984,2.46094 2.34375,2.46093 2.34375,7.46093 z m -6.5625,-19.51172 3.88672,0 -6.36719,7.34375 -2.98828,0 5.46875,-7.34375 z"
         id="path4835"
         inkscape:connector-curvature="0" />
      <path
         d="m 250.98759,510.41705 0,3.39844 q -1.52344,-0.78125 -3.16407,-1.17187 -1.64062,-0.39063 -3.39843,-0.39063 -2.67578,0 -4.02344,0.82031 -1.32813,0.82032 -1.32813,2.46094 0,1.25 0.95704,1.97266 0.95703,0.70312 3.84765,1.34765 l 1.23047,0.27344 q 3.82813,0.82031 5.42969,2.32422 1.62109,1.48437 1.62109,4.16016 0,3.04687 -2.42187,4.82421 -2.40235,1.77735 -6.6211,1.77735 -1.75781,0 -3.67187,-0.35156 -1.89453,-0.33204 -4.00391,-1.01563 l 0,-3.71094 q 1.99219,1.03516 3.92578,1.5625 1.9336,0.50782 3.82813,0.50782 2.53906,0 3.90625,-0.85938 1.36719,-0.87891 1.36719,-2.46094 0,-1.46484 -0.9961,-2.24609 -0.97656,-0.78125 -4.3164,-1.50391 l -1.25,-0.29297 q -3.33985,-0.70312 -4.82422,-2.14843 -1.48438,-1.46485 -1.48438,-4.00391 0,-3.08594 2.1875,-4.76562 2.1875,-1.67969 6.21094,-1.67969 1.99219,0 3.75,0.29297 1.75781,0.29297 3.24219,0.8789 z"
         id="path4837"
         inkscape:connector-curvature="0" />
      <path
         d="m 257.90165,509.77252 3.59375,0 0,21.875 -3.59375,0 0,-21.875 z m 0,-8.51562 3.59375,0 0,4.55078 -3.59375,0 0,-4.55078 z"
         id="path4839"
         inkscape:connector-curvature="0" />
      <path
         d="m 284.73759,510.61237 0,3.35937 q -1.52344,-0.83984 -3.06641,-1.25 -1.52344,-0.42969 -3.08594,-0.42969 -3.49609,0 -5.42968,2.22657 -1.9336,2.20703 -1.9336,6.21093 0,4.00391 1.9336,6.23047 1.93359,2.20703 5.42968,2.20703 1.5625,0 3.08594,-0.41015 1.54297,-0.42969 3.06641,-1.26953 l 0,3.32031 q -1.50391,0.70312 -3.125,1.05469 -1.60157,0.35156 -3.41797,0.35156 -4.94141,0 -7.85156,-3.10547 -2.91016,-3.10547 -2.91016,-8.37891 0,-5.35156 2.92969,-8.41797 2.94922,-3.0664 8.0664,-3.0664 1.66016,0 3.24219,0.35156 1.58203,0.33203 3.06641,1.01563 z"
         id="path4841"
         inkscape:connector-curvature="0" />
      <path
         d="m 299.50321,512.29205 q -2.89062,0 -4.57031,2.26563 -1.67969,2.24609 -1.67969,6.17187 0,3.92578 1.66016,6.19141 1.67969,2.24609 4.58984,2.24609 2.8711,0 4.55078,-2.26562 1.67969,-2.26563 1.67969,-6.17188 0,-3.88672 -1.67969,-6.15234 -1.67968,-2.28516 -4.55078,-2.28516 z m 0,-3.04687 q 4.6875,0 7.36328,3.04687 2.67578,3.04688 2.67578,8.4375 0,5.3711 -2.67578,8.4375 -2.67578,3.04688 -7.36328,3.04688 -4.70703,0 -7.38281,-3.04688 -2.65625,-3.0664 -2.65625,-8.4375 0,-5.39062 2.65625,-8.4375 2.67578,-3.04687 7.38281,-3.04687 z"
         id="path4843"
         inkscape:connector-curvature="0" />
    </g>
  </g>
</svg>
